:SAMPLES-PER-SECOND 30
:FULLY-SPECIFIED
:DEGREES
1147
root  -58.2335 39.4424 9.71808 -173.539 -82.3722 168.154
RightUpLeg  -10.5157 -12.7748 -11.0756
RightLeg  7.70579 21.5916 2.72909
RightFoot  5.6839 -1.64203 11.1807
RightToes  -5.8209e-011 0 -3.6325e-017
Spine  8.99674 -2.4523 5.62772
Spine1  8.92557 -1.61335 -1.39071
HEad  -28.9031 -22.1013 10.275
LeftShoulder1  1.03293 0.571586 -29.2671
LeftArm  -5.90561 4.23801 -44.9866
LeftForeArm  15.7563 -7.40546 -7.81082
LeftHand  -0.0103649 7.90266 1.57288
RightShoulder  -0.416689 -4.65941 29.0695
RightArm  3.21671 -5.80077 34.204
RightForeArm  -14.6544 -2.52697 3.26438
RightHand  -0.489588 4.08381 -6.28665
LeftUpLeg  0.886513 -11.4402 5.07187
LeftLeg  23.2492 -10.9359 -4.79691
LeftFoot  -16.3895 -0.100044 -4.46965
LeftToes  -8.31281e-010 4.41007e-011 3.74621e-011
1148
root  -57.679 39.3292 10.5726 -170.026 -79.8858 164.091
RightUpLeg  -10.4137 -12.9256 -12.4494
RightLeg  4.3517 24.0371 0.896635
RightFoot  6.85532 -2.32086 14.7386
RightToes  -5.8209e-011 0 -3.6325e-017
Spine  10.2568 -2.22512 0.885217
Spine1  8.53419 -2.53399 1.33417
HEad  -28.7574 -20.2427 9.5292
LeftShoulder1  0.84047 1.30533 -32.0587
LeftArm  -5.02599 6.465 -43.5832
LeftForeArm  24.5897 -1.96849 -8.24086
LeftHand  -0.0375594 8.84519 0.044106
RightShoulder  -0.381945 -4.60307 27.7202
RightArm  3.11632 -10.6119 33.31
RightForeArm  -15.0121 -0.125836 2.95944
RightHand  -0.399539 4.38427 -4.98221
LeftUpLeg  1.33617 -9.3327 2.22018
LeftLeg  22.2816 -7.96013 -3.23809
LeftFoot  -16.7953 0.0465781 -1.09914
LeftToes  -8.31281e-010 4.41007e-011 3.74621e-011
1149
root  -57.003 39.182 11.4072 -164.607 -77.3198 158.498
RightUpLeg  -10.9973 -13.3334 -14.2248
RightLeg  0.820936 25.2815 -1.27841
RightFoot  6.77282 -2.9835 18.8617
RightToes  -5.8209e-011 0 -3.6325e-017
Spine  11.174 -2.33878 -4.01914
Spine1  8.46414 -3.35055 1.98095
HEad  -29.6085 -18.0939 9.59214
LeftShoulder1  0.732464 1.57515 -31.917
LeftArm  -5.4805 10.0042 -44.2513
LeftForeArm  31.7682 0.462889 -7.92789
LeftHand  -0.172405 9.29996 -1.81452
RightShoulder  -0.401982 -4.67697 27.242
RightArm  3.51186 -13.0338 33.3849
RightForeArm  -13.8278 1.52768 3.00084
RightHand  -0.286569 3.21778 -4.10175
LeftUpLeg  0.134961 -7.43037 -0.854446
LeftLeg  22.6799 -6.02201 -2.42449
LeftFoot  -16.7034 0.126811 0.562152
LeftToes  -8.31281e-010 4.41007e-011 3.74621e-011
1150
root  -56.2818 39.0875 12.2635 -162.977 -74.6396 156.498
RightUpLeg  -11.9159 -14.1393 -15.6094
RightLeg  -1.23575 23.0726 -2.23736
RightFoot  6.77323 -2.87407 18.1552
RightToes  -5.8209e-011 0 -3.6325e-017
Spine  12.1091 -2.32873 -7.40498
Spine1  8.57033 -3.81335 2.51733
HEad  -30.7634 -16.594 8.94906
LeftShoulder1  0.634597 1.85631 -32.4208
LeftArm  -5.16007 12.7932 -43.8799
LeftForeArm  39.9541 1.14696 -8.07564
LeftHand  -0.584945 12.0001 -9.09267
RightShoulder  -0.35167 -4.55019 26.5357
RightArm  2.85301 -15.2296 34.5029
RightForeArm  -13.4817 2.69876 2.73572
RightHand  -0.399733 4.9388 -4.80306
LeftUpLeg  -1.32792 -4.63775 -2.84785
LeftLeg  23.5378 -6.47037 -2.73935
LeftFoot  -16.2057 0.113367 0.397905
LeftToes  -8.31281e-010 4.41007e-011 3.74621e-011
1151
root  -55.5925 39.1416 13.088 -163.416 -72.865 157.235
RightUpLeg  -12.7632 -15.1963 -16.3661
RightLeg  -1.71371 10.2093 -1.10295
RightFoot  5.38092 -2.22297 15.3376
RightToes  -5.8209e-011 0 -3.6325e-017
Spine  12.276 -2.43661 -8.17099
Spine1  8.7775 -3.88377 2.09482
HEad  -32.235 -16.2698 7.53023
LeftShoulder1  0.628159 1.87343 -32.4684
LeftArm  -4.62236 15.2011 -43.6299
LeftForeArm  41.1385 0.676844 -8.50784
LeftHand  -0.416115 11.0686 -6.96929
RightShoulder  -0.481075 -4.9383 26.6936
RightArm  1.63237 -17.4705 35.5484
RightForeArm  -13.1946 3.6617 2.26393
RightHand  -0.358218 3.32425 -4.99885
LeftUpLeg  -3.10829 -2.92765 -4.05643
LeftLeg  23.5383 -6.05576 -2.54065
LeftFoot  -14.6606 0.118427 1.05752
LeftToes  -8.31281e-010 4.41007e-011 3.74621e-011
1152
root  -54.9824 39.2627 13.845 -166.911 -71.1499 161.272
RightUpLeg  -12.7429 -16.2671 -16.0507
RightLeg  -1.26067 -7.13548 1.68792
RightFoot  3.55996 -1.9534 15.045
RightToes  -5.8209e-011 0 -3.6325e-017
Spine  12.1669 -2.61492 -6.16058
Spine1  8.50164 -3.33733 0.0443625
HEad  -33.7857 -16.7119 5.44783
LeftShoulder1  0.504748 2.21999 -33.2051
LeftArm  -4.17928 16.1494 -42.3203
LeftForeArm  40.1599 0.283793 -8.67317
LeftHand  -0.42988 10.9386 -7.31041
RightShoulder  -0.591601 -5.25829 26.9515
RightArm  0.493387 -19.5247 36.8243
RightForeArm  -13.9596 3.75374 1.86565
RightHand  -0.362319 3.80467 -4.88682
LeftUpLeg  -4.67709 -2.29213 -4.28192
LeftLeg  23.1737 -4.44955 -1.75349
LeftFoot  -13.1627 0.105677 1.63729
LeftToes  -8.31281e-010 4.41007e-011 3.74621e-011
1153
root  -54.3498 39.5329 14.5149 -170.878 -68.4473 165.481
RightUpLeg  -13.5108 -17.1414 -14.7289
RightLeg  2.89828 -11.5025 2.54545
RightFoot  3.25015 -1.39602 11.0375
RightToes  -5.8209e-011 0 -3.6325e-017
Spine  12.0782 -2.26341 -3.87109
Spine1  8.58104 -2.20598 -2.10687
HEad  -35.3922 -17.2944 3.2729
LeftShoulder1  0.45161 2.35538 -33.2152
LeftArm  -5.08539 16.8472 -41.8112
LeftForeArm  38.4736 -0.945166 -8.07719
LeftHand  -0.578678 12.0729 -8.51423
RightShoulder  -0.704034 -5.54683 27.8055
RightArm  0.0661368 -19.7618 38.0044
RightForeArm  -14.3214 2.71081 1.74606
RightHand  -0.284523 5.10044 -3.43172
LeftUpLeg  -4.79864 -0.328389 -4.00061
LeftLeg  20.6902 -3.58299 -1.12844
LeftFoot  -10.8695 0.0581054 1.72708
LeftToes  -8.31281e-010 4.41007e-011 3.74621e-011
1154
root  -53.7543 39.7756 15.0814 -173.37 -65.5397 168.107
RightUpLeg  -14.7686 -19.7176 -12.3842
RightLeg  9.76492 -5.21966 0.974693
RightFoot  1.78874 -1.09001 9.58039
RightToes  -5.8209e-011 0 -3.6325e-017
Spine  11.9657 -1.85806 -3.0133
Spine1  8.23521 -1.4665 -3.09861
HEad  -36.3144 -15.9016 1.20197
LeftShoulder1  0.424541 2.41013 -32.7315
LeftArm  -5.88765 17.6237 -42.1894
LeftForeArm  34.095 -1.93871 -7.61115
LeftHand  -0.417699 11.2266 -6.77366
RightShoulder  -0.706836 -5.54834 27.907
RightArm  0.164244 -19.151 39.456
RightForeArm  -13.2478 1.93465 1.85352
RightHand  -0.232639 3.93954 -3.16149
LeftUpLeg  -4.53012 2.49657 -3.7331
LeftLeg  17.8347 -3.45296 -0.797161
LeftFoot  -8.53833 0.00412335 1.9176
LeftToes  -8.31281e-010 4.41007e-011 3.74621e-011
1155
root  -53.18 39.9684 15.5716 -175.661 -63.5755 170.268
RightUpLeg  -14.3392 -21.9548 -10.6681
RightLeg  16.3048 0.552672 0.0139555
RightFoot  -0.268492 -0.898776 9.21515
RightToes  -5.8209e-011 0 -3.6325e-017
Spine  11.8678 -2.02941 -1.91293
Spine1  7.79595 -1.32494 -4.27447
HEad  -36.3439 -14.2319 -0.106178
LeftShoulder1  0.487942 2.22451 -32.0574
LeftArm  -4.85492 17.1971 -41.7111
LeftForeArm  29.3579 -2.21944 -8.07993
LeftHand  -0.332393 10.9154 -5.53622
RightShoulder  -0.683459 -5.47924 27.9187
RightArm  0.84146 -18.4349 40.8325
RightForeArm  -12.5337 2.27736 2.28941
RightHand  -0.269149 3.6272 -3.71074
LeftUpLeg  -4.06653 4.43692 -3.07569
LeftLeg  15.3205 -3.28642 -0.828706
LeftFoot  -6.51821 -0.0469681 2.05426
LeftToes  -8.31281e-010 4.41007e-011 3.74621e-011
1156
root  -52.5871 40.0936 16.0156 -176.504 -61.8525 171.331
RightUpLeg  -13.4827 -19.8267 -10.9439
RightLeg  23.1746 -1.11649 -0.787751
RightFoot  -1.91297 -0.628813 7.45575
RightToes  -5.8209e-011 0 -3.6325e-017
Spine  11.8343 -2.09742 -2.56247
Spine1  6.71415 -1.76151 -3.41405
HEad  -36.2017 -11.7353 -0.641759
LeftShoulder1  0.541994 2.06971 -31.7022
LeftArm  -5.97089 16.9395 -41.6143
LeftForeArm  27.8499 -3.4116 -7.50285
LeftHand  -0.242788 10.6187 -3.61824
RightShoulder  -0.618652 -5.31399 27.4398
RightArm  1.06579 -18.0276 41.943
RightForeArm  -13.8969 4.30718 2.69631
RightHand  -0.472137 3.59473 -6.35093
LeftUpLeg  -4.15552 5.30204 -2.60088
LeftLeg  13.0096 -2.48638 -1.15022
LeftFoot  -4.74322 -0.067692 1.68843
LeftToes  -8.31281e-010 4.41007e-011 3.74621e-011
